<svg width="40" height="40" viewBox="0 0 40 40" fill="none" xmlns="http://www.w3.org/2000/svg">
<path d="M0 20C0 8.95431 8.95431 0 20 0C31.0457 0 40 8.95431 40 20C40 31.0457 31.0457 40 20 40C8.95431 40 0 31.0457 0 20Z" fill="url(#paint0_linear_1494_27916)"/>
<path d="M15.8162 24.7728H25.5316C25.5614 24.7728 25.5902 24.768 25.6179 24.7606C25.6201 24.7606 25.6219 24.761 25.6241 24.761C25.8315 24.761 26 24.5722 26 24.3394V12.4217C26 12.1889 25.8315 12 25.6241 12H25.5324H16.4174H15.8167C14.8162 12 14.0024 12.9131 14.0024 14.0352C14.0024 14.0502 14.005 14.0645 14.0063 14.079C14.005 15.1155 13.9936 24.6396 14.005 25.8916C14.0043 25.9161 14.0017 25.94 14.0017 25.9647C14.0017 27.0436 14.7547 27.9269 15.702 27.9936C15.721 27.9969 15.7396 28 15.7593 28H25.6241C25.8315 28 26 27.8112 26 27.5783V25.9911C26 25.7584 25.8314 25.5695 25.6241 25.5695C25.4167 25.5695 25.2482 25.7585 25.2482 25.9911V27.1567H15.8162C15.245 27.1567 14.7787 26.6479 14.7558 26.0136C14.7564 26.0022 14.7582 25.9915 14.758 25.98C14.7576 25.9615 14.7571 25.9327 14.7567 25.8943C14.7895 25.27 15.2515 24.7728 15.8162 24.7728ZM16.0725 14.0352C16.0725 13.8024 16.2409 13.6135 16.4484 13.6135C16.6559 13.6135 16.8243 13.8024 16.8243 14.0352V22.6004C16.8243 22.833 16.6559 23.022 16.4484 23.022C16.2409 23.022 16.0725 22.833 16.0725 22.6004V14.0352Z" fill="white"/>
<defs>
<linearGradient id="paint0_linear_1494_27916" x1="-12.4342" y1="-7.91446" x2="-12.4342" y2="59.004" gradientUnits="userSpaceOnUse">
<stop stop-color="#FF52E3"/>
<stop offset="1" stop-color="#2980FF"/>
</linearGradient>
</defs>
</svg>
