<svg width="40" height="40" viewBox="0 0 40 40" fill="none" xmlns="http://www.w3.org/2000/svg">
<path d="M0 20C0 8.95431 8.95431 0 20 0C31.0457 0 40 8.95431 40 20C40 31.0457 31.0457 40 20 40C8.95431 40 0 31.0457 0 20Z" fill="url(#paint0_linear_1494_27856)"/>
<path d="M15.2464 13.9025C15.2464 11.1776 17.3919 9 20 9C22.608 9 24.7536 11.1776 24.7536 13.9025V19.4267C24.7536 22.1516 22.608 24.3293 20 24.3293C17.3919 24.3293 15.2464 22.1516 15.2464 19.4267V13.9025Z" fill="white"/>
<path d="M13.3913 19.4267C13.3913 19.0217 13.0799 18.6934 12.6957 18.6934C12.3115 18.6934 12 19.0217 12 19.4267C12 23.7513 15.2255 27.2714 19.3043 27.6339V29.5333H15.942C15.5578 29.5333 15.2464 29.8617 15.2464 30.2667C15.2464 30.6717 15.5578 31 15.942 31H19.9973L20 31L20.0027 31H24.058C24.4422 31 24.7536 30.6717 24.7536 30.2667C24.7536 29.8617 24.4422 29.5333 24.058 29.5333H20.6957V27.6339C24.7746 27.2714 28 23.7513 28 19.4267C28 19.0217 27.6885 18.6934 27.3043 18.6934C26.9201 18.6934 26.6087 19.0217 26.6087 19.4267C26.6087 23.1491 23.6672 26.198 20 26.198C16.3328 26.198 13.3913 23.1491 13.3913 19.4267Z" fill="white"/>
<defs>
<linearGradient id="paint0_linear_1494_27856" x1="25.7143" y1="0.169492" x2="26.5476" y2="40.1759" gradientUnits="userSpaceOnUse">
<stop stop-color="#6EE8FF"/>
<stop offset="1" stop-color="#3885FF"/>
</linearGradient>
</defs>
</svg>
