<svg width="40" height="40" viewBox="0 0 40 40" fill="none" xmlns="http://www.w3.org/2000/svg">
<g opacity="0.967308">
<path d="M0 20.0001C0 8.95445 8.95431 0 20 0C31.0457 0 40 8.95445 40 20.0001C40 31.0458 31.0457 40.0003 20 40.0003C8.95431 40.0003 0 31.0458 0 20.0001Z" fill="url(#paint0_linear_1494_27896)"/>
<path fill-rule="evenodd" clip-rule="evenodd" d="M31.3711 20.5704H29.3071C29.0776 20.5704 28.8199 20.2425 28.8199 19.8046V14.0974C28.8199 11.8384 27.1961 10 25.199 10C23.2018 10 21.5771 11.8384 21.5771 14.0974V21.7195V25.902C21.5771 26.8799 20.9534 27.7059 20.215 27.7059C19.4755 27.7059 18.8509 26.8799 18.8509 25.902V21.7195V19.8046C18.8509 17.5447 17.2262 15.7063 15.23 15.7063C13.2328 15.7063 11.6082 17.5447 11.6082 19.8046C11.6082 20.2444 11.3514 20.5723 11.1218 20.5723H8.62982C8.00611 20.5723 7.5 21.0857 7.5 21.7195C7.5 22.3533 8.00611 22.8667 8.62982 22.8667H11.1218C12.6345 22.8667 13.8669 21.4929 13.8669 19.8046C13.8669 18.8276 14.4906 18.0007 15.23 18.0007C15.9685 18.0007 16.5931 18.8276 16.5931 19.8046V21.7195V25.902C16.5931 28.1619 18.2178 30.0003 20.215 30.0003C22.2112 30.0003 23.8358 28.1619 23.8358 25.902V21.7195V14.0974C23.8358 13.1204 24.4595 12.2953 25.199 12.2953C25.9384 12.2953 26.5621 13.1204 26.5621 14.0974V19.8046C26.5621 21.492 27.7935 22.8648 29.3071 22.8648H31.3711C31.9948 22.8648 32.5 22.3514 32.5 21.7176C32.5 21.0838 31.9948 20.5704 31.3711 20.5704Z" fill="white"/>
</g>
<defs>
<linearGradient id="paint0_linear_1494_27896" x1="25.3837" y1="0" x2="25.3837" y2="69.2985" gradientUnits="userSpaceOnUse">
<stop stop-color="#FFB339"/>
<stop offset="1" stop-color="#FF128E"/>
</linearGradient>
</defs>
</svg>
