<svg width="40" height="40" viewBox="0 0 40 40" fill="none" xmlns="http://www.w3.org/2000/svg">
<path d="M0 20C0 8.95431 8.95431 0 20 0C31.0457 0 40 8.95431 40 20C40 31.0457 31.0457 40 20 40C8.95431 40 0 31.0457 0 20Z" fill="url(#paint0_linear_1494_27906)"/>
<path fill-rule="evenodd" clip-rule="evenodd" d="M29.9996 15.1456L30 15.1355V15.1253C30 14.826 29.8811 14.5304 29.6424 14.3148C29.4051 14.1005 29.0898 14 28.7492 14C28.1847 14 27.6036 14.2817 27.4673 14.9242L27.4648 14.936L27.4628 14.9479C27.3607 15.5605 27.0796 16.1741 26.598 16.6305C26.1246 17.0793 25.4261 17.4068 24.423 17.4068C23.0003 17.4068 21.9147 16.7813 20.5945 15.965L20.5923 15.9636C18.718 14.8173 17.3983 14.0725 15.3833 14.0725C13.9178 14.0725 12.5894 14.4573 11.612 15.1709C10.6247 15.8916 10 16.9496 10 18.2277C10 18.5625 10.1464 18.8599 10.3971 19.0618C10.6381 19.2559 10.9437 19.3386 11.2508 19.3386C11.7601 19.3386 12.4162 19.0757 12.5172 18.3955L12.5172 18.3955L12.5183 18.3877C12.6213 17.6184 12.9309 17.0632 13.3746 16.696C13.8222 16.3256 14.4562 16.1057 15.2757 16.1057C16.5921 16.1057 17.4851 16.6313 18.6957 17.3739C20.8662 18.72 22.1459 19.4545 24.2078 19.4545C27.7686 19.4545 29.9213 17.2738 29.9996 15.1456ZM29.9996 21.691L30 21.6809V21.6708C30 21.3714 29.8811 21.0759 29.6424 20.8603C29.4051 20.646 29.0898 20.5455 28.7492 20.5455C28.1847 20.5455 27.6036 20.8271 27.4673 21.4697L27.4648 21.4815L27.4628 21.4934C27.3607 22.106 27.0796 22.7195 26.598 23.176C26.1246 23.6248 25.4261 23.9523 24.423 23.9523C23.0003 23.9523 21.9147 23.3268 20.5945 22.5104L20.5923 22.5091C18.718 21.3627 17.3983 20.6179 15.3833 20.6179C13.9178 20.6179 12.5894 21.0028 11.612 21.7163C10.6247 22.437 10 23.4951 10 24.7732C10 25.1079 10.1464 25.4054 10.3971 25.6072C10.6381 25.8014 10.9437 25.884 11.2508 25.884C11.7601 25.884 12.4162 25.6212 12.5172 24.941L12.5172 24.941L12.5183 24.9332C12.6213 24.1639 12.9309 23.6086 13.3746 23.2415C13.8222 22.8711 14.4562 22.6512 15.2757 22.6512C16.5921 22.6512 17.4851 23.1767 18.6957 23.9193C20.8662 25.2655 22.1459 26 24.2078 26C27.7686 26 29.9213 23.8192 29.9996 21.691Z" fill="white"/>
<defs>
<linearGradient id="paint0_linear_1494_27906" x1="-10.8203" y1="-21.6407" x2="-10.8203" y2="40" gradientUnits="userSpaceOnUse">
<stop stop-color="#FFF35C"/>
<stop offset="1" stop-color="#EF7B32"/>
</linearGradient>
</defs>
</svg>
